/* XPM */
static char * door_xpm[] = {
"100 100 9 1",
" 	c #509B66",
".	c #21110D",
"+	c #755338",
"@	c #503625",
"#	c #342319",
"$	c #E9CE7C",
"%	c #D99945",
"&	c #000000",
"*	c #3B7540",
"      ........................................................................................      ",
"      ........................................................................................      ",
"      ........................................................................................      ",
"      ........................................................................................      ",
"      ........................................................................................      ",
"      ........................................................................................      ",
"......++++++++++++++++++++++++++++++++++++++++++++++++++++++++++++++++++++++++++++++++++++++++......",
"......++++++++++++++++++++++++++++++++++++++++++++++++++++++++++++++++++++++++++++++++++++++++......",
"......++++++++++++++++++++++++++++++++++++++++++++++++++++++++++++++++++++++++++++++++++++++++......",
"......++++++++++++++++++++++++++++++++++++++++++++++++++++++++++++++++++++++++++++++++++++++++......",
"......++++++++++++++++++++++++++++++++++++++++++++++++++++++++++++++++++++++++++++++++++++++++......",
"......++++++++++++++++++++++++++++++++++++++++++++++++++++++++++++++++++++++++++++++++++++++++......",
"......++++++++++++++++++++++++++++++++++++++++++++++++++++++++++++++++++++++++++++++++++++++++......",
"......++++++++++++++++++++++++++++++++++++++++++++++++++++++++++++++++++++++++++++++++++++++++......",
"......++++++++++++++++++++++++++++++++++++++++++++++++++++++++++++++++++++++++++++++++++++++++......",
"......++++++++++++++++++++++++++++++++++++++++++++++++++++++++++++++++++++++++++++++++++++++++......",
"......++++++++++++++++++++++++++++++++++++++++++++++++++++++++++++++++++++++++++++++++++++++++......",
"......++++++++++++++++++++++++++++++++++++++++++++++++++++++++++++++++++++++++++++++++++++++++......",
"......++++++++++++++++++++++++++++++++++++++++++++++++++++++++++++++++++++++++++++++++++++++++......",
"......@@@@@@###########################################################################@@@@@@@......",
"......@@@@@@###########################################################################@@@@@@@......",
"......@@@@@@###########################################################################@@@@@@@......",
"......@@@@@@###########################################################################@@@@@@@......",
"......@@@@@@###########################################################################@@@@@@@......",
"......@@@@@@###########################################################################@@@@@@@......",
"......++++++#######@@@@@@@@@@@@######@@@@@@@@@@@@@@@@@@@@@@@@@#######@@@@@@@@@@@@######+++++++......",
"......++++++#######@@@@@@@@@@@@######@@@@@@@@@@@@@@@@@@@@@@@@@#######@@@@@@@@@@@@######+++++++......",
"......++++++#######@@@@@@@@@@@@######@@@@@@@@@@@@@@@@@@@@@@@@@#######@@@@@@@@@@@@######+++++++......",
"......++++++#######@@@@@@@@@@@@######@@@@@@@@@@@@@@@@@@@@@@@@@#######@@@@@@@@@@@@######+++++++......",
"......++++++#######@@@@@@@@@@@@######@@@@@@@@@@@@@@@@@@@@@@@@@#######@@@@@@@@@@@@######+++++++......",
"......++++++#######@@@@@@@@@@@@######@@@@@@@@@@@@@@@@@@@@@@@@@#######@@@@@@@@@@@@######+++++++......",
"......++++++#######@@@@@@@@@@@@@@@@@@@@@@@@@@@@@@@@@@@@@@@@@@@#######@@@@@@@@@@@@######+++++++......",
"......++++++#######@@@@@@@@@@@@@@@@@@@@@@@@@@@@@@@@@@@@@@@@@@@#######@@@@@@@@@@@@######+++++++......",
"......++++++#######@@@@@@@@@@@@@@@@@@@@@@@@@@@@@@@@@@@@@@@@@@@#######@@@@@@@@@@@@######+++++++......",
"......++++++#######@@@@@@@@@@@@@@@@@@@@@@@@@@@@@@@@@@@@@@@@@@@#######@@@@@@@@@@@@######+++++++......",
"......++++++#######@@@@@@@@@@@@@@@@@@@@@@@@@@@@@@@@@@@@@@@@@@@#######@@@@@@@@@@@@######+++++++......",
"......++++++#######@@@@@@@@@@@@@@@@@@@@@@@@@@@@@@@@@@@@@@@@@@@#######@@@@@@@@@@@@######+++++++......",
"......++++++#######@@@@@@@@@@@@@@@@@@@@@@@@@@@@@@@@@@@@@@@@@@@@@@@@@@@@@@@@@@@@@@######+++++++......",
"......++++++#######@@@@@@@@@@@@@@@@@@@@@@@@@@@@@@@@@@@@@@@@@@@@@@@@@@@@@@@@@@@@@@######+++++++......",
"......++++++#######@@@@@@@@@@@@@@@@@@@@@@@@@@@@@@@@@@@@@@@@@@@@@@@@@@@@@@@@@@@@@@######+++++++......",
"......++++++#######@@@@@@@@@@@@@@@@@@@@@@@@@@@@@@@@@@@@@@@@@@@@@@@@@@@@@@@@@@@@@@######+++++++......",
"......++++++#######@@@@@@@@@@@@@@@@@@@@@@@@@@@@@@@@@@@@@@@@@@@@@@@@@@@@@@@@@@@@@@######+++++++......",
"......++++++#######@@@@@@@@@@@@@@@@@@@@@@@@@@@@@@@@@@@@@@@@@@@@@@@@@@@@@@@@@@@@@@######+++++++......",
"......++++++#######@@@@@@@@@@@@@@@@@@@@@@@@@@@@@@@@@@@@@@@@@@@@@@@@@@@@@@@@@@@@@@######+++++++......",
"......++++++#######@@@@@@@@@@@@@@@@@@@@@@@@@@@@@@@@@@@@@@@@@@@@@@@@@@@@@@@@@@@@@@######+++++++......",
"......++++++#######@@@@@@@@@@@@@@@@@@@@@@@@@@@@@@@@@@@@@@@@@@@@@@@@@@@@@@@@@@@@@@######+++++++......",
"......++++++#######@@@@@@@@@@@@@@@@@@@@@@@@@@@@@@@@@@@@@@@@@@@@@@@@@@@@@@@@@@@@@@######+++++++......",
"......++++++#######@@@@@@@@@@@@@@@@@@@@@@@@@@@@@@@@@@@@@@@@@@@@@@@@@@@@@@@@@@@@@@######+++++++......",
"......++++++#######@@@@@@@@@@@@@@@@@@@@@@@@@@@@@@@@@@@@@@@@@@@@@@@@@@@@@@@@@@@@@@######+++++++......",
"......++++++#######@@@@@@@@@@@@@@@@@@@@@@@@@@@@@@@@@@@@@@@@@@@@@@@@@@@@@@@@@@@@@@######+++++++......",
"......++++++#######@@@@@@@@@@@@@@@@@@@@@@@@@@@@@@@@@@@@@@@@@@@@@@@@@@$$$$$$%%%%%%######+++++++......",
"......++++++#######@@@@@@@@@@@@@@@@@@@@@@@@@@@@@@@@@@@@@@@@@@@@@@@@@@$$$$$$%%%%%%######+++++++......",
"......++++++#######@@@@@@@@@@@@@@@@@@@@@@@@@@@@@@@@@@@@@@@@@@@@@@@@@@$$$$$$%%%%%%######+++++++......",
"......++++++#######@@@@@@@@@@@@@@@@@@@@@@@@@@@@@@@@@@@@@@@@@@@@@@@@@@$$$$$$%%%%%%######+++++++......",
"......++++++#######@@@@@@@@@@@@@@@@@@@@@@@@@@@@@@@@@@@@@@@@@@@@@@@@@@$$$$$$%%%%%%######+++++++......",
"......++++++#######@@@@@@@@@@@@@@@@@@@@@@@@@@@@@@@@@@@@@@@@@@@@@@@@@@$$$$$$%%%%%%######+++++++......",
"......++++++#######@@@@@@@@@@@@@@@@@@@@@@@@@@@@@@@@@@@@@@@@@@@@@@@@@@%%%%%%%%%%%%######+++++++......",
"......++++++#######@@@@@@@@@@@@@@@@@@@@@@@@@@@@@@@@@@@@@@@@@@@@@@@@@@%%%%%%%%%%%%######+++++++......",
"......++++++#######@@@@@@@@@@@@@@@@@@@@@@@@@@@@@@@@@@@@@@@@@@@@@@@@@@%%%%%%%%%%%%######+++++++......",
"......++++++#######@@@@@@@@@@@@@@@@@@@@@@@@@@@@@@@@@@@@@@@@@@@@@@@@@@%%%%%%%%%%%%######+++++++......",
"......++++++#######@@@@@@@@@@@@@@@@@@@@@@@@@@@@@@@@@@@@@@@@@@@@@@@@@@%%%%%%%%%%%%######+++++++......",
"......++++++#######@@@@@@@@@@@@@@@@@@@@@@@@@@@@@@@@@@@@@@@@@@@@@@@@@@%%%%%%%%%%%%######+++++++......",
"......++++++#######@@@@@@@@@@@@@@@@@@@@@@@@@@@@@@@@@@@@@@@@@@@@@@@@@@##################+++++++......",
"......++++++#######@@@@@@@@@@@@@@@@@@@@@@@@@@@@@@@@@@@@@@@@@@@@@@@@@@##################+++++++......",
"......++++++#######@@@@@@@@@@@@@@@@@@@@@@@@@@@@@@@@@@@@@@@@@@@@@@@@@@##################+++++++......",
"......++++++#######@@@@@@@@@@@@@@@@@@@@@@@@@@@@@@@@@@@@@@@@@@@@@@@@@@##################+++++++......",
"......++++++#######@@@@@@@@@@@@@@@@@@@@@@@@@@@@@@@@@@@@@@@@@@@@@@@@@@##################+++++++......",
"......++++++#######@@@@@@@@@@@@@@@@@@@@@@@@@@@@@@@@@@@@@@@@@@@@@@@@@@##################+++++++......",
"......++++++#######@@@@@@@@@@@@@@@@@@@@@@@@@@@@@@@@@@@@@@@@@@@@@@@@@@##################+++++++......",
"......++++++#######@@@@@@@@@@@@######@@@@@@@@@@@@@@@@@@@@@@@@@@@@@@@@@@@@@@@@@@@@######+++++++......",
"......++++++#######@@@@@@@@@@@@######@@@@@@@@@@@@@@@@@@@@@@@@@@@@@@@@@@@@@@@@@@@@######+++++++......",
"......++++++#######@@@@@@@@@@@@######@@@@@@@@@@@@@@@@@@@@@@@@@@@@@@@@@@@@@@@@@@@@######+++++++......",
"......++++++#######@@@@@@@@@@@@######@@@@@@@@@@@@@@@@@@@@@@@@@@@@@@@@@@@@@@@@@@@@######+++++++......",
"......++++++#######@@@@@@@@@@@@######@@@@@@@@@@@@@@@@@@@@@@@@@@@@@@@@@@@@@@@@@@@@######+++++++......",
"......++++++#######@@@@@@@@@@@@######@@@@@@@@@@@@@@@@@@@@@@@@@@@@@@@@@@@@@@@@@@@@######+++++++......",
"......++++++#######@@@@@@@@@@@@######@@@@@@@@@@@@@@@@@@@@@@@@@@@@@@@@@@@@@@@@@@@@######+++++++......",
"......++++++#######@@@@@@@@@@@@######@@@@@@@@@@@@@@@@@@@@@@@@@@@@@@@@@@@@@@@@@@@@######+++++++......",
"......++++++#######@@@@@@@@@@@@######@@@@@@@@@@@@@@@@@@@@@@@@@@@@@@@@@@@@@@@@@@@@######+++++++......",
"......++++++#######@@@@@@@@@@@@######@@@@@@@@@@@@@@@@@@@@@@@@@@@@@@@@@@@@@@@@@@@@######+++++++......",
"......++++++#######@@@@@@@@@@@@######@@@@@@@@@@@@@@@@@@@@@@@@@@@@@@@@@@@@@@@@@@@@######+++++++......",
"......++++++#######@@@@@@@@@@@@######@@@@@@@@@@@@@@@@@@@@@@@@@@@@@@@@@@@@@@@@@@@@######+++++++......",
"......++++++#######@@@@@@@@@@@@######@@@@@@@@@@@@@@@@@@@@@@@@@#######@@@@@@@@@@@@######+++++++......",
"......++++++#######@@@@@@@@@@@@######@@@@@@@@@@@@@@@@@@@@@@@@@#######@@@@@@@@@@@@######+++++++......",
"......++++++#######@@@@@@@@@@@@######@@@@@@@@@@@@@@@@@@@@@@@@@#######@@@@@@@@@@@@######+++++++......",
"......++++++#######@@@@@@@@@@@@######@@@@@@@@@@@@@@@@@@@@@@@@@#######@@@@@@@@@@@@######+++++++......",
"......++++++#######@@@@@@@@@@@@######@@@@@@@@@@@@@@@@@@@@@@@@@#######@@@@@@@@@@@@######+++++++......",
"......++++++#######@@@@@@@@@@@@######@@@@@@@@@@@@@@@@@@@@@@@@@#######@@@@@@@@@@@@######+++++++......",
"......&&&&&&&&&&&&&&&&&&&&&&&&&&&&&&&&&&&&&&&&&&&&&&&&&&&&&&&&&&&&&&&&&&&&&&&&&&&&&&&&&&&&&&&&......",
"......&&&&&&&&&&&&&&&&&&&&&&&&&&&&&&&&&&&&&&&&&&&&&&&&&&&&&&&&&&&&&&&&&&&&&&&&&&&&&&&&&&&&&&&&......",
"......&&&&&&&&&&&&&&&&&&&&&&&&&&&&&&&&&&&&&&&&&&&&&&&&&&&&&&&&&&&&&&&&&&&&&&&&&&&&&&&&&&&&&&&&......",
"......&&&&&&&&&&&&&&&&&&&&&&&&&&&&&&&&&&&&&&&&&&&&&&&&&&&&&&&&&&&&&&&&&&&&&&&&&&&&&&&&&&&&&&&&......",
"......&&&&&&&&&&&&&&&&&&&&&&&&&&&&&&&&&&&&&&&&&&&&&&&&&&&&&&&&&&&&&&&&&&&&&&&&&&&&&&&&&&&&&&&&......",
"......&&&&&&&&&&&&&&&&&&&&&&&&&&&&&&&&&&&&&&&&&&&&&&&&&&&&&&&&&&&&&&&&&&&&&&&&&&&&&&&&&&&&&&&&......",
"......&&&&&&&&&&&&&&&&&&&&&&&&&&&&&&&&&&&&&&&&&&&&&&&&&&&&&&&&&&&&&&&&&&&&&&&&&&&&&&&&&&&&&&&&......",
"&&&&&&****************************************************************************************&&&&&&",
"&&&&&&****************************************************************************************&&&&&&",
"&&&&&&****************************************************************************************&&&&&&",
"&&&&&&****************************************************************************************&&&&&&",
"&&&&&&****************************************************************************************&&&&&&",
"&&&&&&****************************************************************************************&&&&&&"};
