/* XPM */
static char * objects_xpm[] = {
"100 100 10 1",
" 	c #509B66",
".	c #082B0C",
"+	c #53A03B",
"@	c #347B2C",
"#	c #114517",
"$	c #21110D",
"%	c #342319",
"&	c #221D12",
"*	c #3B7540",
"=	c #503625",
"                                                             ..........                             ",
"                                                             ..........                             ",
"                                                             ..........                             ",
"                          ............                    ...++++++++++...                          ",
"                          ............                    ...++++++++++...                          ",
"                          ............                    ...++++++++++...                          ",
"                      ....++++++++++++....      .......   ++++++++++++++++..........                ",
"                      ....++++++++++++....      .......   ++++++++++++++++..........                ",
"                      ....++++++++++++....      .......   ++++++++++++++++..........                ",
"                      ....++++++++++++++++......@@@@@@@...++++++++++++++++...@@@@@@@...             ",
"                      ....++++++++++++++++......@@@@@@@...++++++++++++++++...@@@@@@@...             ",
"                      ....++++++++++++++++......@@@@@@@...++++++++++++++++...@@@@@@@...             ",
"                ..........+++++++++++++++++++...+++++++...+++++++++++++...@@@+++++++@@@...          ",
"                ..........+++++++++++++++++++...+++++++...+++++++++++++...@@@+++++++@@@...          ",
"                ..........+++++++++++++++++++...+++++++...+++++++++++++...@@@+++++++@@@...          ",
"                ..........+++++++++++++++++++...+++++++...+++++++++++++...@@@+++++++@@@...          ",
"             ...@@@+++++++@@@++++++++++++++++++++++++++@@@+++++++++++++++++++++++++++++...          ",
"             ...@@@+++++++@@@++++++++++++++++++++++++++@@@+++++++++++++++++++++++++++++...          ",
"             ...@@@+++++++@@@++++++++++++++++++++++++++@@@+++++++++++++++++++++++++++++...          ",
"      ..........++++++++++++++++++++++++++++++++++++++++++++++++++++++++++++++++++++@@@...          ",
"      ..........++++++++++++++++++++++++++++++++++++++++++++++++++++++++++++++++++++@@@...          ",
"      ..........++++++++++++++++++++++++++++++++++++++++++++++++++++++++++++++++++++@@@...          ",
"   ...+++++++...++++++++++++++++++++++++++++++++++++++++++++++++++++++++++++++++@@@@......          ",
"   ...+++++++...++++++++++++++++++++++++++++++++++++++++++++++++++++++++++++++++@@@@......          ",
"   ...+++++++...++++++++++++++++++++++++++++++++++++++++++++++++++++++++++++++++@@@@......          ",
"   ...++++++++++++++++++++++++++++++++++++++++++++++++++++++++++++++++++++++++++++++++++++...       ",
"   ...++++++++++++++++++++++++++++++++++++++++++++++++++++++++++++++++++++++++++++++++++++...       ",
"   ...++++++++++++++++++++++++++++++++++++++++++++++++++++++++++++++++++++++++++++++++++++...       ",
"   ...+++@@@@++++++++++++++++++++++++++++++++++++++++++++++++++++++++++++++++++++++++++++++++....   ",
"   ...+++@@@@++++++++++++++++++++++++++++++++++++++++++++++++++++++++++++++++++++++++++++++++....   ",
"   ...+++@@@@++++++++++++++++++++++++++++++++++++++++++++++++++++++++++++++++++++++++++++++++....   ",
"      ...++++++++++++++++++++++++++++++++++++++++++++++++++++++++++++++++++++++++++++++++++++++++...",
"      ...++++++++++++++++++++++++++++++++++++++++++++++++++++++++++++++++++++++++++++++++++++++++...",
"      ...++++++++++++++++++++++++++++++++++++++++++++++++++++++++++++++++++++++++++++++++++++++++...",
"      ...+++++++++++++++++++++++++++++++++++++++++++++++++++++++++++++++++++++++@@@@+++++++++++++...",
"      ...+++++++++++++++++++++++++++++++++++++++++++++++++++++++++++++++++++++++@@@@+++++++++++++...",
"      ...+++++++++++++++++++++++++++++++++++++++++++++++++++++++++++++++++++++++@@@@+++++++++++++...",
"   ...@@@+++++++@@@+++++++++++++++++++++++++++++++++++++++++++++++++++++++++++++++++@@@++++++++++...",
"   ...@@@+++++++@@@+++++++++++++++++++++++++++++++++++++++++++++++++++++++++++++++++@@@++++++++++...",
"   ...@@@+++++++@@@+++++++++++++++++++++++++++++++++++++++++++++++++++++++++++++++++@@@++++++++++...",
"   ...@@@+++++++@@@+++++++++++++++++++++++++++++++++++++++++++++++++++++++++++++++++@@@++++++++++...",
"   ...++++++++++@@@@@@++++++++++++++++++++++++++++++++++++++++++@@@@++++++++++++++++######@@@@@@@...",
"   ...++++++++++@@@@@@++++++++++++++++++++++++++++++++++++++++++@@@@++++++++++++++++######@@@@@@@...",
"   ...++++++++++@@@@@@++++++++++++++++++++++++++++++++++++++++++@@@@++++++++++++++++######@@@@@@@...",
"...@@@+++++++@@@++++++++++++++++++++++++++++++++++++++++++++++++++++###@@@++++++@@@@++++++.......   ",
"...@@@+++++++@@@++++++++++++++++++++++++++++++++++++++++++++++++++++###@@@++++++@@@@++++++.......   ",
"...@@@+++++++@@@++++++++++++++++++++++++++++++++++++++++++++++++++++###@@@++++++@@@@++++++.......   ",
"...@@@@@@#######+++++++++++++++++++++++++++++++++++++++++++++++++++++++######@@@@@@@+++++++++....   ",
"...@@@@@@#######+++++++++++++++++++++++++++++++++++++++++++++++++++++++######@@@@@@@+++++++++....   ",
"...@@@@@@#######+++++++++++++++++++++++++++++++++++++++++++++++++++++++######@@@@@@@+++++++++....   ",
"......#######+++++++++++++@@@+++++++++++++++++++++++++++++++++++++++++++++@@@@@@++++++++++@@@####...",
"......#######+++++++++++++@@@+++++++++++++++++++++++++++++++++++++++++++++@@@@@@++++++++++@@@####...",
"......#######+++++++++++++@@@+++++++++++++++++++++++++++++++++++++++++++++@@@@@@++++++++++@@@####...",
"   ......####+++++++++++++@@@+++++++++++++@@@+++++++++++++++++++@@@@+++++++++@@@@@@@@@@@@@@@@@@@@...",
"   ......####+++++++++++++@@@+++++++++++++@@@+++++++++++++++++++@@@@+++++++++@@@@@@@@@@@@@@@@@@@@...",
"   ......####+++++++++++++@@@+++++++++++++@@@+++++++++++++++++++@@@@+++++++++@@@@@@@@@@@@@@@@@@@@...",
"   ...@@@@@@@+++++++++@@@@+++++++++++++++++++@@@++++++++++++++++++++@@@++++++@@@@@@@######@@@@@@@...",
"   ...@@@@@@@+++++++++@@@@+++++++++++++++++++@@@++++++++++++++++++++@@@++++++@@@@@@@######@@@@@@@...",
"   ...@@@@@@@+++++++++@@@@+++++++++++++++++++@@@++++++++++++++++++++@@@++++++@@@@@@@######@@@@@@@...",
"...@@@+++++++@@@@@@@@@@@@@++++++@@@++++++++++@@@++++++++++++++++++++@@@@@@@@@+++++++@@@##########...",
"...@@@+++++++@@@@@@@@@@@@@++++++@@@++++++++++@@@++++++++++++++++++++@@@@@@@@@+++++++@@@##########...",
"...@@@+++++++@@@@@@@@@@@@@++++++@@@++++++++++@@@++++++++++++++++++++@@@@@@@@@+++++++@@@##########...",
"...###+++++++++++++@@@@@@@@@@++++++@@@@@@@@@@@@@++++++++++++++++@@@@@@@@@@@@@++++++++++@@@#######...",
"...###+++++++++++++@@@@@@@@@@++++++@@@@@@@@@@@@@++++++++++++++++@@@@@@@@@@@@@++++++++++@@@#######...",
"...###+++++++++++++@@@@@@@@@@++++++@@@@@@@@@@@@@++++++++++++++++@@@@@@@@@@@@@++++++++++@@@#######...",
"...###+++++++++++++@@@@@@@@@@++++++@@@@@@@@@@@@@++++++++++++++++@@@@@@@@@@@@@++++++++++@@@#######...",
"   ...@@@+++++++++++++@@@@++++++++++++@@@@@@@+++@@@+++++++@@@@@@@@@@###++++++@@@+++++++@@@.......$$$",
"   ...@@@+++++++++++++@@@@++++++++++++@@@@@@@+++@@@+++++++@@@@@@@@@@###++++++@@@+++++++@@@.......$$$",
"   ...@@@+++++++++++++@@@@++++++++++++@@@@@@@+++@@@+++++++@@@@@@@@@@###++++++@@@+++++++@@@.......$$$",
"   $$$...@@@@###++++++@@@@++++++++++++@@@@+++++++++@@@@++++++#######@@@+++++++++++++@@@@@@###....%%%",
"   $$$...@@@@###++++++@@@@++++++++++++@@@@+++++++++@@@@++++++#######@@@+++++++++++++@@@@@@###....%%%",
"   $$$...@@@@###++++++@@@@++++++++++++@@@@+++++++++@@@@++++++#######@@@+++++++++++++@@@@@@###....%%%",
"&&&...@@@@@@@@@@###@@@@@@@+++++++++@@@####++++++++++++++++++++++....@@@@@@###+++@@@@@@@######....%%%",
"&&&...@@@@@@@@@@###@@@@@@@+++++++++@@@####++++++++++++++++++++++....@@@@@@###+++@@@@@@@######....%%%",
"&&&...@@@@@@@@@@###@@@@@@@+++++++++@@@####++++++++++++++++++++++....@@@@@@###+++@@@@@@@######....%%%",
"&&&...@@@@@@@@@@...@@@@@@@###@@@@@@#######@@@++++++@@@@++++++@@@.......###@@@@@@#############....%%%",
"&&&...@@@@@@@@@@...@@@@@@@###@@@@@@#######@@@++++++@@@@++++++@@@.......###@@@@@@#############....%%%",
"&&&...@@@@@@@@@@...@@@@@@@###@@@@@@#######@@@++++++@@@@++++++@@@.......###@@@@@@#############....%%%",
"&&&...@@@@@@@###...#######@@@@@@@@@#######@@@@@@@@@@@@@###@@@@@@####...###@@@@@@....#########....***",
"&&&...@@@@@@@###...#######@@@@@@@@@#######@@@@@@@@@@@@@###@@@@@@####...###@@@@@@....#########....***",
"&&&...@@@@@@@###...#######@@@@@@@@@#######@@@@@@@@@@@@@###@@@@@@####...###@@@@@@....#########....***",
"&&&%%%...#######......####@@@@@@@@@@@@#######@@@@@@@@@@#############......######.............*******",
"&&&%%%...#######......####@@@@@@@@@@@@#######@@@@@@@@@@#############......######.............*******",
"&&&%%%...#######......####@@@@@@@@@@@@#######@@@@@@@@@@#############......######.............*******",
"*********.......%%%...#######...@@@@@@#######...################....%%%%%%......&&&&****************",
"*********.......%%%...#######...@@@@@@#######...################....%%%%%%......&&&&****************",
"*********.......%%%...#######...@@@@@@#######...################....%%%%%%......&&&&****************",
"   **********&&&======..........##########...%%%................&&&&%%%=========%%%%&&&*************",
"   **********&&&======..........##########...%%%................&&&&%%%=========%%%%&&&*************",
"   **********&&&======..........##########...%%%................&&&&%%%=========%%%%&&&*************",
"   **********&&&======..........##########...%%%................&&&&%%%=========%%%%&&&*************",
"      *******&&&==========%%%%%%..........=========%%%%&&&**********&&&%%%==========&&&**********   ",
"      *******&&&==========%%%%%%..........=========%%%%&&&**********&&&%%%==========&&&**********   ",
"      *******&&&==========%%%%%%..........=========%%%%&&&**********&&&%%%==========&&&**********   ",
"         **********===%%%%%%%&&&******&&&&======%%%&&&&***********************************          ",
"         **********===%%%%%%%&&&******&&&&======%%%&&&&***********************************          ",
"         **********===%%%%%%%&&&******&&&&======%%%&&&&***********************************          ",
"                ********************************************************************                ",
"                ********************************************************************                ",
"                ********************************************************************                "};
